<?xml version="1.0" encoding="UTF-8"?>
<svg xmlns="http://www.w3.org/2000/svg" viewBox="0 0 800 600" width="800" height="600">
  <!-- Background -->
  <rect width="800" height="600" fill="#e2f5ea" />
  
  <!-- Sun -->
  <circle cx="650" cy="100" r="60" fill="#FFD700" />
  <g>
    <path d="M650 30 L650 10" stroke="#FFD700" stroke-width="8" stroke-linecap="round" />
    <path d="M650 190 L650 170" stroke="#FFD700" stroke-width="8" stroke-linecap="round" />
    <path d="M580 100 L560 100" stroke="#FFD700" stroke-width="8" stroke-linecap="round" />
    <path d="M740 100 L720 100" stroke="#FFD700" stroke-width="8" stroke-linecap="round" />
    <path d="M600 50 L585 35" stroke="#FFD700" stroke-width="8" stroke-linecap="round" />
    <path d="M715 165 L700 150" stroke="#FFD700" stroke-width="8" stroke-linecap="round" />
    <path d="M600 150 L585 165" stroke="#FFD700" stroke-width="8" stroke-linecap="round" />
    <path d="M715 35 L700 50" stroke="#FFD700" stroke-width="8" stroke-linecap="round" />
  </g>
  
  <!-- Mountains -->
  <path d="M0 250 L200 100 L400 220 L550 150 L700 200 L800 120 L800 600 L0 600 Z" fill="#64a86b" />
  <path d="M0 350 L150 200 L300 320 L450 220 L600 320 L800 220 L800 600 L0 600 Z" fill="#2e7d32" />
  
  <!-- Trees - Far -->
  <g>
    <path d="M100 340 L120 260 L140 340 Z" fill="#1b5e20" />
    <rect x="118" y="340" width="4" height="20" fill="#795548" />
    
    <path d="M150 350 L170 270 L190 350 Z" fill="#2e7d32" />
    <rect x="168" y="350" width="4" height="20" fill="#795548" />
    
    <path d="M200 330 L220 250 L240 330 Z" fill="#388e3c" />
    <rect x="218" y="330" width="4" height="20" fill="#795548" />
    
    <path d="M250 360 L270 280 L290 360 Z" fill="#2e7d32" />
    <rect x="268" y="360" width="4" height="20" fill="#795548" />
    
    <path d="M300 340 L320 260 L340 340 Z" fill="#1b5e20" />
    <rect x="318" y="340" width="4" height="20" fill="#795548" />
    
    <path d="M350 320 L370 240 L390 320 Z" fill="#388e3c" />
    <rect x="368" y="320" width="4" height="20" fill="#795548" />
    
    <path d="M400 350 L420 270 L440 350 Z" fill="#2e7d32" />
    <rect x="418" y="350" width="4" height="20" fill="#795548" />
    
    <path d="M450 330 L470 250 L490 330 Z" fill="#1b5e20" />
    <rect x="468" y="330" width="4" height="20" fill="#795548" />
    
    <path d="M500 360 L520 280 L540 360 Z" fill="#388e3c" />
    <rect x="518" y="360" width="4" height="20" fill="#795548" />
    
    <path d="M550 340 L570 260 L590 340 Z" fill="#2e7d32" />
    <rect x="568" y="340" width="4" height="20" fill="#795548" />
    
    <path d="M600 320 L620 240 L640 320 Z" fill="#1b5e20" />
    <rect x="618" y="320" width="4" height="20" fill="#795548" />
    
    <path d="M650 350 L670 270 L690 350 Z" fill="#388e3c" />
    <rect x="668" y="350" width="4" height="20" fill="#795548" />
  </g>
  
  <!-- Trees - Closer -->
  <g>
    <!-- Tree 1 - Left -->
    <path d="M50 430 L80 330 L110 430 Z" fill="#2e7d32" />
    <path d="M50 480 L80 380 L110 480 Z" fill="#388e3c" />
    <path d="M50 530 L80 430 L110 530 Z" fill="#1b5e20" />
    <rect x="75" y="530" width="10" height="70" fill="#5d4037" />
    
    <!-- Tree 2 -->
    <path d="M220 480 L250 380 L280 480 Z" fill="#2e7d32" />
    <path d="M220 530 L250 430 L280 530 Z" fill="#388e3c" />
    <rect x="245" y="530" width="10" height="70" fill="#5d4037" />
    
    <!-- Tree 3 -->
    <path d="M400 450 L430 350 L460 450 Z" fill="#1b5e20" />
    <path d="M400 500 L430 400 L460 500 Z" fill="#388e3c" />
    <path d="M400 550 L430 450 L460 550 Z" fill="#2e7d32" />
    <rect x="425" y="550" width="10" height="50" fill="#5d4037" />
    
    <!-- Tree 4 - Right -->
    <path d="M600 430 L630 330 L660 430 Z" fill="#388e3c" />
    <path d="M600 480 L630 380 L660 480 Z" fill="#1b5e20" />
    <path d="M600 530 L630 430 L660 530 Z" fill="#2e7d32" />
    <rect x="625" y="530" width="10" height="70" fill="#5d4037" />
  </g>
  
  <!-- Large Tree - Foreground -->
  <g>
    <path d="M150 600 L100 420 L200 600 Z" fill="#1b5e20" />
    <path d="M150 600 L70 450 L230 600 Z" fill="#2e7d32" />
    <rect x="140" y="500" width="20" height="100" fill="#795548" />
  </g>
  
  <!-- Clouds -->
  <g fill="#fff">
    <circle cx="100" cy="120" r="30" />
    <circle cx="130" cy="100" r="40" />
    <circle cx="180" cy="120" r="35" />
    <circle cx="220" cy="100" r="25" />
    
    <circle cx="400" cy="80" r="35" />
    <circle cx="450" cy="70" r="45" />
    <circle cx="500" cy="90" r="30" />
    
    <circle cx="200" cy="180" r="20" />
    <circle cx="230" cy="170" r="30" />
    <circle cx="270" cy="180" r="25" />
  </g>
  
  <!-- Carbon Cycles - Symbolic representation -->
  <g stroke="#0288d1" stroke-width="2" fill="none">
    <path d="M700 500 C730 480, 730 450, 700 430 C670 410, 670 380, 700 360" stroke-dasharray="5,5" />
    <path d="M750 550 C780 530, 780 500, 750 480 C720 460, 720 430, 750 410" stroke-dasharray="5,5" />
  </g>
  
  <!-- Title -->
  <text x="400" y="570" font-family="Arial, sans-serif" font-size="32" font-weight="bold" text-anchor="middle" fill="#006064">FUNDO VERDE</text>
  <text x="400" y="595" font-family="Arial, sans-serif" font-size="20" text-anchor="middle" fill="#00796b">Sustentabilidade e Investimento</text>
</svg>