<svg viewBox="0 0 400 300" xmlns="http://www.w3.org/2000/svg">
  <rect x="0" y="0" width="400" height="300" fill="#FFF3E0"/>
  
  <circle cx="80" cy="80" r="50" fill="#FFD54F"/>
  <g id="ray">
    <rect x="0" y="-3" width="20" height="6" fill="#FFC107"/>
  </g>
  <use href="#ray" transform="translate(80, 80) rotate(0)"/>
  <use href="#ray" transform="translate(80, 80) rotate(45)"/>
  <use href="#ray" transform="translate(80, 80) rotate(90)"/>
  <use href="#ray" transform="translate(80, 80) rotate(135)"/>
  <use href="#ray" transform="translate(80, 80) rotate(180)"/>
  <use href="#ray" transform="translate(80, 80) rotate(225)"/>
  <use href="#ray" transform="translate(80, 80) rotate(270)"/>
  <use href="#ray" transform="translate(80, 80) rotate(315)"/>
  
  <rect x="150" y="150" width="100" height="80" fill="#FF6F00"/>
  <rect x="170" y="170" width="25" height="25" fill="#FFE082"/>
  <rect x="205" y="170" width="25" height="25" fill="#FFE082"/>
  
  <rect x="160" y="120" width="80" height="30" fill="#1976D2"/>
  <rect x="165" y="125" width="70" height="20" fill="#64B5F6"/>
  
  <path d="M200,150 L200,250" stroke="#424242" stroke-width="4"/>
  <path d="M180,240 L220,240" stroke="#424242" stroke-width="4"/>
  
  <text x="200" y="30" font-family="Arial, sans-serif" font-size="20" font-weight="bold" text-anchor="middle" fill="#E65100">
    Energia Solar Comunitária
  </text>
</svg>