<svg viewBox="0 0 400 300" xmlns="http://www.w3.org/2000/svg">
  <rect x="0" y="0" width="400" height="150" fill="#E3F2FD"/>
  <rect x="0" y="150" width="400" height="150" fill="#0277BD"/>
  
  <g id="fish">
    <ellipse cx="0" cy="0" rx="20" ry="10" fill="#FFC107"/>
    <polygon points="15,0 25,-5 25,5" fill="#FFC107"/>
    <circle cx="-10" cy="-2" r="2" fill="#000000"/>
  </g>
  
  <use href="#fish" transform="translate(100, 200)"/>
  <use href="#fish" transform="translate(250, 180) scale(0.8)" fill="#FF5722"/>
  <use href="#fish" transform="translate(300, 220) scale(1.2)" fill="#4CAF50"/>
  
  <g id="boat">
    <path d="M0,0 L40,0 L35,10 L5,10 Z" fill="#795548"/>
    <rect x="15" y="-20" width="3" height="20" fill="#424242"/>
    <polygon points="18,-20 18,-5 30,-12" fill="#FFFFFF"/>
  </g>
  
  <use href="#boat" transform="translate(150, 140)"/>
  
  <path d="M0,160 Q50,150 100,160 T200,160 T300,160 T400,160" fill="none" stroke="#0288D1" stroke-width="2"/>
  
  <text x="200" y="30" font-family="Arial, sans-serif" font-size="20" font-weight="bold" text-anchor="middle" fill="#01579B">
    Proteção dos Oceanos
  </text>
</svg>