<svg width="400" height="300" viewBox="0 0 400 300" xmlns="http://www.w3.org/2000/svg">
  <defs>
    <linearGradient id="skyGradient" x1="0%" y1="0%" x2="0%" y2="100%">
      <stop offset="0%" style="stop-color:#87CEEB;stop-opacity:1" />
      <stop offset="100%" style="stop-color:#98D8E8;stop-opacity:1" />
    </linearGradient>
    <linearGradient id="groundGradient" x1="0%" y1="0%" x2="0%" y2="100%">
      <stop offset="0%" style="stop-color:#22c55e;stop-opacity:1" />
      <stop offset="100%" style="stop-color:#16a34a;stop-opacity:1" />
    </linearGradient>
    <radialGradient id="treeGradient" cx="50%" cy="30%" r="70%">
      <stop offset="0%" style="stop-color:#22c55e;stop-opacity:1" />
      <stop offset="100%" style="stop-color:#15803d;stop-opacity:1" />
    </radialGradient>
  </defs>
  
  <!-- Sky background -->
  <rect width="400" height="300" fill="url(#skyGradient)"/>
  
  <!-- Mountains in background -->
  <polygon points="0,180 80,120 160,160 240,100 320,140 400,120 400,300 0,300" fill="#94a3b8" opacity="0.6"/>
  
  <!-- Ground -->
  <rect x="0" y="200" width="400" height="100" fill="url(#groundGradient)"/>
  
  <!-- Large trees -->
  <!-- Tree 1 -->
  <g transform="translate(60, 120)">
    <rect x="12" y="60" width="8" height="40" fill="#8b4513"/>
    <circle cx="16" cy="50" r="25" fill="url(#treeGradient)"/>
    <circle cx="16" cy="45" r="18" fill="#22c55e" opacity="0.8"/>
  </g>
  
  <!-- Tree 2 -->
  <g transform="translate(120, 110)">
    <rect x="15" y="70" width="10" height="50" fill="#8b4513"/>
    <circle cx="20" cy="60" r="30" fill="url(#treeGradient)"/>
    <circle cx="20" cy="55" r="22" fill="#22c55e" opacity="0.8"/>
  </g>
  
  <!-- Tree 3 -->
  <g transform="translate(200, 105)">
    <rect x="18" y="75" width="12" height="55" fill="#8b4513"/>
    <circle cx="24" cy="65" r="35" fill="url(#treeGradient)"/>
    <circle cx="24" cy="60" r="25" fill="#22c55e" opacity="0.8"/>
  </g>
  
  <!-- Tree 4 -->
  <g transform="translate(280, 115)">
    <rect x="14" y="65" width="9" height="45" fill="#8b4513"/>
    <circle cx="18.5" cy="55" r="28" fill="url(#treeGradient)"/>
    <circle cx="18.5" cy="50" r="20" fill="#22c55e" opacity="0.8"/>
  </g>
  
  <!-- Tree 5 -->
  <g transform="translate(340, 125)">
    <rect x="10" y="55" width="8" height="35" fill="#8b4513"/>
    <circle cx="14" cy="45" r="22" fill="url(#treeGradient)"/>
    <circle cx="14" cy="40" r="16" fill="#22c55e" opacity="0.8"/>
  </g>
  
  <!-- Medium trees -->
  <!-- Tree 6 -->
  <g transform="translate(40, 150)">
    <rect x="8" y="40" width="6" height="25" fill="#8b4513"/>
    <circle cx="11" cy="35" r="15" fill="url(#treeGradient)"/>
  </g>
  
  <!-- Tree 7 -->
  <g transform="translate(90, 145)">
    <rect x="9" y="45" width="7" height="30" fill="#8b4513"/>
    <circle cx="12.5" cy="40" r="18" fill="url(#treeGradient)"/>
  </g>
  
  <!-- Tree 8 -->
  <g transform="translate(160, 140)">
    <rect x="10" y="50" width="7" height="32" fill="#8b4513"/>
    <circle cx="13.5" cy="45" r="20" fill="url(#treeGradient)"/>
  </g>
  
  <!-- Tree 9 -->
  <g transform="translate(250, 150)">
    <rect x="8" y="42" width="6" height="28" fill="#8b4513"/>
    <circle cx="11" cy="37" r="16" fill="url(#treeGradient)"/>
  </g>
  
  <!-- Tree 10 -->
  <g transform="translate(320, 155)">
    <rect x="7" y="38" width="5" height="22" fill="#8b4513"/>
    <circle cx="9.5" cy="33" r="13" fill="url(#treeGradient)"/>
  </g>
  
  <!-- Small trees and bushes -->
  <g fill="#22c55e" opacity="0.7">
    <circle cx="25" cy="180" r="8"/>
    <circle cx="75" cy="185" r="6"/>
    <circle cx="135" cy="175" r="10"/>
    <circle cx="185" cy="180" r="7"/>
    <circle cx="235" cy="185" r="9"/>
    <circle cx="285" cy="175" r="8"/>
    <circle cx="335" cy="180" r="6"/>
    <circle cx="375" cy="185" r="7"/>
  </g>
  
  <!-- Grass details -->
  <g stroke="#15803d" stroke-width="1" opacity="0.6">
    <line x1="15" y1="220" x2="17" y2="210"/>
    <line x1="18" y1="225" x2="20" y2="215"/>
    <line x1="35" y1="215" x2="37" y2="205"/>
    <line x1="55" y1="230" x2="57" y2="220"/>
    <line x1="85" y1="225" x2="87" y2="215"/>
    <line x1="115" y1="220" x2="117" y2="210"/>
    <line x1="145" y1="235" x2="147" y2="225"/>
    <line x1="175" y1="220" x2="177" y2="210"/>
    <line x1="205" y1="230" x2="207" y2="220"/>
    <line x1="235" y1="215" x2="237" y2="205"/>
    <line x1="265" y1="225" x2="267" y2="215"/>
    <line x1="295" y1="220" x2="297" y2="210"/>
    <line x1="325" y1="230" x2="327" y2="220"/>
    <line x1="355" y1="225" x2="357" y2="215"/>
    <line x1="385" y1="220" x2="387" y2="210"/>
  </g>
  
  <!-- Birds -->
  <g stroke="#475569" stroke-width="2" fill="none">
    <path d="M 100 80 Q 105 75 110 80"/>
    <path d="M 95 85 Q 100 80 105 85"/>
    <path d="M 300 60 Q 305 55 310 60"/>
    <path d="M 295 65 Q 300 60 305 65"/>
  </g>
  
  <!-- Clouds -->
  <g fill="white" opacity="0.8">
    <ellipse cx="80" cy="40" rx="20" ry="12"/>
    <ellipse cx="95" cy="35" rx="15" ry="8"/>
    <ellipse cx="110" cy="40" rx="25" ry="15"/>
    
    <ellipse cx="280" cy="30" rx="18" ry="10"/>
    <ellipse cx="295" cy="25" rx="12" ry="7"/>
    <ellipse cx="310" cy="30" rx="20" ry="12"/>
  </g>
</svg>