<svg width="400" height="300" viewBox="0 0 400 300" xmlns="http://www.w3.org/2000/svg">
  <defs>
    <linearGradient id="skyGradient" x1="0%" y1="0%" x2="0%" y2="100%">
      <stop offset="0%" style="stop-color:#87CEEB;stop-opacity:1" />
      <stop offset="100%" style="stop-color:#98D8E8;stop-opacity:1" />
    </linearGradient>
    <linearGradient id="panelGradient" x1="0%" y1="0%" x2="100%" y2="100%">
      <stop offset="0%" style="stop-color:#1e3a8a;stop-opacity:1" />
      <stop offset="100%" style="stop-color:#3730a3;stop-opacity:1" />
    </linearGradient>
    <linearGradient id="sunGradient" x1="0%" y1="0%" x2="100%" y2="100%">
      <stop offset="0%" style="stop-color:#fbbf24;stop-opacity:1" />
      <stop offset="100%" style="stop-color:#f59e0b;stop-opacity:1" />
    </linearGradient>
  </defs>
  
  <!-- Sky background -->
  <rect width="400" height="300" fill="url(#skyGradient)"/>
  
  <!-- Sun -->
  <circle cx="320" cy="60" r="25" fill="url(#sunGradient)"/>
  <g stroke="#fbbf24" stroke-width="2" opacity="0.8">
    <line x1="320" y1="20" x2="320" y2="30"/>
    <line x1="320" y1="90" x2="320" y2="100"/>
    <line x1="280" y1="60" x2="290" y2="60"/>
    <line x1="350" y1="60" x2="360" y2="60"/>
    <line x1="295" y1="35" x2="302" y2="42"/>
    <line x1="338" y1="78" x2="345" y2="85"/>
    <line x1="345" y1="35" x2="338" y2="42"/>
    <line x1="302" y1="78" x2="295" y2="85"/>
  </g>
  
  <!-- Ground -->
  <rect x="0" y="220" width="400" height="80" fill="#22c55e"/>
  
  <!-- Solar panels -->
  <g transform="translate(50, 140)">
    <!-- Panel 1 -->
    <rect x="0" y="0" width="80" height="50" fill="url(#panelGradient)" stroke="#1e40af" stroke-width="2"/>
    <g stroke="#3b82f6" stroke-width="1" opacity="0.7">
      <line x1="20" y1="0" x2="20" y2="50"/>
      <line x1="40" y1="0" x2="40" y2="50"/>
      <line x1="60" y1="0" x2="60" y2="50"/>
      <line x1="0" y1="17" x2="80" y2="17"/>
      <line x1="0" y1="33" x2="80" y2="33"/>
    </g>
    <!-- Support -->
    <polygon points="10,50 70,50 60,80 20,80" fill="#64748b"/>
  </g>
  
  <g transform="translate(150, 130)">
    <!-- Panel 2 -->
    <rect x="0" y="0" width="80" height="50" fill="url(#panelGradient)" stroke="#1e40af" stroke-width="2"/>
    <g stroke="#3b82f6" stroke-width="1" opacity="0.7">
      <line x1="20" y1="0" x2="20" y2="50"/>
      <line x1="40" y1="0" x2="40" y2="50"/>
      <line x1="60" y1="0" x2="60" y2="50"/>
      <line x1="0" y1="17" x2="80" y2="17"/>
      <line x1="0" y1="33" x2="80" y2="33"/>
    </g>
    <!-- Support -->
    <polygon points="10,50 70,50 60,80 20,80" fill="#64748b"/>
  </g>
  
  <g transform="translate(250, 145)">
    <!-- Panel 3 -->
    <rect x="0" y="0" width="80" height="50" fill="url(#panelGradient)" stroke="#1e40af" stroke-width="2"/>
    <g stroke="#3b82f6" stroke-width="1" opacity="0.7">
      <line x1="20" y1="0" x2="20" y2="50"/>
      <line x1="40" y1="0" x2="40" y2="50"/>
      <line x1="60" y1="0" x2="60" y2="50"/>
      <line x1="0" y1="17" x2="80" y2="17"/>
      <line x1="0" y1="33" x2="80" y2="33"/>
    </g>
    <!-- Support -->
    <polygon points="10,50 70,50 60,80 20,80" fill="#64748b"/>
  </g>
  
  <!-- Energy lines -->
  <g stroke="#fbbf24" stroke-width="2" opacity="0.6">
    <path d="M 320 85 Q 280 100 90 140" fill="none" stroke-dasharray="5,5"/>
    <path d="M 320 85 Q 300 110 190 130" fill="none" stroke-dasharray="5,5"/>
    <path d="M 320 85 Q 320 120 290 145" fill="none" stroke-dasharray="5,5"/>
  </g>
  
  <!-- Clouds -->
  <g fill="white" opacity="0.8">
    <ellipse cx="80" cy="50" rx="15" ry="8"/>
    <ellipse cx="90" cy="45" rx="12" ry="6"/>
    <ellipse cx="100" cy="50" rx="18" ry="10"/>
    
    <ellipse cx="180" cy="35" rx="12" ry="6"/>
    <ellipse cx="190" cy="30" rx="10" ry="5"/>
    <ellipse cx="200" cy="35" rx="15" ry="8"/>
  </g>
</svg>