<?xml version="1.0" encoding="UTF-8"?>
<svg width="32" height="32" viewBox="0 0 32 32" fill="none" xmlns="http://www.w3.org/2000/svg">
  <path d="M16 2C8.2 2 2 8.2 2 16C2 23.8 8.2 30 16 30C23.8 30 30 23.8 30 16C30 8.2 23.8 2 16 2Z" fill="#4CAF50"/>
  <path d="M21.5 10C21.5 10 20.5 14 16 15.5" stroke="#FFFFFF" stroke-width="2" stroke-linecap="round" stroke-linejoin="round"/>
  <path d="M11 14C11 14 13 17 18 16.5" stroke="#FFFFFF" stroke-width="2" stroke-linecap="round" stroke-linejoin="round"/>
  <path d="M10.5 20C10.5 20 13 22 16 22C19 22 21.5 20 21.5 20" stroke="#FFFFFF" stroke-width="2" stroke-linecap="round" stroke-linejoin="round"/>
  <path d="M16 9C16 9 13.5 13 13.5 16C13.5 19 16 23 16 23" stroke="#FFFFFF" stroke-width="2" stroke-linecap="round" stroke-linejoin="round"/>
</svg>