<?xml version="1.0" encoding="UTF-8"?>
<svg width="40" height="40" viewBox="0 0 40 40" fill="none" xmlns="http://www.w3.org/2000/svg">
  <path d="M20 3C10.611 3 3 10.611 3 20C3 29.389 10.611 37 20 37C29.389 37 37 29.389 37 20C37 10.611 29.389 3 20 3Z" fill="#E6F4EA"/>
  <path d="M26.5 13C26.5 13 25.5 18 20 19.5" stroke="#4CAF50" stroke-width="2" stroke-linecap="round" stroke-linejoin="round"/>
  <path d="M14 18C14 18 16 22 22 21" stroke="#4CAF50" stroke-width="2" stroke-linecap="round" stroke-linejoin="round"/>
  <path d="M13.5 25C13.5 25 17 27 20 27C23 27 26.5 25 26.5 25" stroke="#4CAF50" stroke-width="2" stroke-linecap="round" stroke-linejoin="round"/>
  <path d="M20 12C20 12 17 16.5 17 20C17 23.5 20 28 20 28" stroke="#4CAF50" stroke-width="2" stroke-linecap="round" stroke-linejoin="round"/>
</svg>